REM MD5 83a1959afcb238974523e43760edb2b6
FILE "VR Baseball '97 (Europe).bin" BINARY
  TRACK 01 MODE2/2352
    INDEX 01 00:00:00
  TRACK 02 AUDIO
    INDEX 00 28:41:40
    INDEX 01 28:43:40
  TRACK 03 AUDIO
    INDEX 00 29:23:60
    INDEX 01 29:25:60
  TRACK 04 AUDIO
    INDEX 00 30:02:09
    INDEX 01 30:04:09
REM LEADOUT 33:13:29
